<svg width="202" height="326" viewBox="0 0 202 326" fill="none" xmlns="http://www.w3.org/2000/svg">
<path d="M6 10L5.99999 291" stroke="url(#paint0_linear_84_3)" stroke-width="2"/>
<path d="M6 10L5.99999 153" stroke="#FEFEFE" stroke-width="3"/>
<circle cx="6" cy="14" r="6" fill="#FEFEFE"/>
<circle cx="6" cy="291" r="6" fill="#FEFEFE"/>
<circle cx="6" cy="153" r="6" fill="#FEFEFE"/>
<path d="M34.236 23.312C33.244 23.312 32.348 23.088 31.548 22.64C30.756 22.184 30.072 21.556 29.496 20.756C28.92 19.956 28.48 19.032 28.176 17.984C27.872 16.928 27.72 15.8 27.72 14.6C27.72 13.4 27.872 12.272 28.176 11.216C28.48 10.16 28.92 9.236 29.496 8.444C30.072 7.644 30.756 7.02 31.548 6.572C32.348 6.116 33.244 5.888 34.236 5.888C35.212 5.888 36.1 6.116 36.9 6.572C37.7 7.02 38.38 7.644 38.94 8.444C39.508 9.236 39.944 10.16 40.248 11.216C40.552 12.272 40.704 13.4 40.704 14.6C40.704 15.8 40.552 16.928 40.248 17.984C39.944 19.032 39.508 19.956 38.94 20.756C38.38 21.556 37.7 22.184 36.9 22.64C36.1 23.088 35.212 23.312 34.236 23.312ZM34.236 20.816C35.156 20.816 35.92 20.528 36.528 19.952C37.144 19.368 37.604 18.604 37.908 17.66C38.212 16.716 38.364 15.696 38.364 14.6C38.364 13.448 38.204 12.404 37.884 11.468C37.572 10.524 37.108 9.776 36.492 9.224C35.884 8.664 35.132 8.384 34.236 8.384C33.524 8.384 32.904 8.552 32.376 8.888C31.856 9.224 31.424 9.684 31.08 10.268C30.744 10.852 30.488 11.516 30.312 12.26C30.144 13.004 30.06 13.784 30.06 14.6C30.06 15.696 30.216 16.716 30.528 17.66C30.84 18.604 31.304 19.368 31.92 19.952C32.544 20.528 33.316 20.816 34.236 20.816ZM44.3781 23V8.696H42.3741L43.0581 6.2H46.8741V23H44.3781Z" fill="#FEFEFE"/>
<path d="M34.236 163.312C33.244 163.312 32.348 163.088 31.548 162.64C30.756 162.184 30.072 161.556 29.496 160.756C28.92 159.956 28.48 159.032 28.176 157.984C27.872 156.928 27.72 155.8 27.72 154.6C27.72 153.4 27.872 152.272 28.176 151.216C28.48 150.16 28.92 149.236 29.496 148.444C30.072 147.644 30.756 147.02 31.548 146.572C32.348 146.116 33.244 145.888 34.236 145.888C35.212 145.888 36.1 146.116 36.9 146.572C37.7 147.02 38.38 147.644 38.94 148.444C39.508 149.236 39.944 150.16 40.248 151.216C40.552 152.272 40.704 153.4 40.704 154.6C40.704 155.8 40.552 156.928 40.248 157.984C39.944 159.032 39.508 159.956 38.94 160.756C38.38 161.556 37.7 162.184 36.9 162.64C36.1 163.088 35.212 163.312 34.236 163.312ZM34.236 160.816C35.156 160.816 35.92 160.528 36.528 159.952C37.144 159.368 37.604 158.604 37.908 157.66C38.212 156.716 38.364 155.696 38.364 154.6C38.364 153.448 38.204 152.404 37.884 151.468C37.572 150.524 37.108 149.776 36.492 149.224C35.884 148.664 35.132 148.384 34.236 148.384C33.524 148.384 32.904 148.552 32.376 148.888C31.856 149.224 31.424 149.684 31.08 150.268C30.744 150.852 30.488 151.516 30.312 152.26C30.144 153.004 30.06 153.784 30.06 154.6C30.06 155.696 30.216 156.716 30.528 157.66C30.84 158.604 31.304 159.368 31.92 159.952C32.544 160.528 33.316 160.816 34.236 160.816ZM42.3741 163V160.78C42.9421 160.308 43.5941 159.76 44.3301 159.136C45.0661 158.504 45.8141 157.836 46.5741 157.132C47.3341 156.42 48.0341 155.712 48.6741 155.008C49.3141 154.296 49.8301 153.624 50.2221 152.992C50.6221 152.352 50.8221 151.796 50.8221 151.324C50.8221 150.788 50.6901 150.3 50.4261 149.86C50.1701 149.412 49.8221 149.056 49.3821 148.792C48.9421 148.52 48.4541 148.384 47.9181 148.384C47.3821 148.384 46.8901 148.52 46.4421 148.792C46.0021 149.056 45.6461 149.412 45.3741 149.86C45.1101 150.3 44.9781 150.788 44.9781 151.324H42.4821C42.4821 150.308 42.7301 149.392 43.2261 148.576C43.7301 147.752 44.3901 147.1 45.2061 146.62C46.0301 146.132 46.9341 145.888 47.9181 145.888C48.9101 145.888 49.8141 146.132 50.6301 146.62C51.4461 147.108 52.0981 147.764 52.5861 148.588C53.0741 149.404 53.3181 150.316 53.3181 151.324C53.3181 151.884 53.2021 152.46 52.9701 153.052C52.7381 153.644 52.4141 154.248 51.9981 154.864C51.5901 155.48 51.1141 156.104 50.5701 156.736C50.0261 157.368 49.4421 158 48.8181 158.632C48.1941 159.264 47.5581 159.888 46.9101 160.504H53.4621V163H42.3741Z" fill="#FEFEFE"/>
<path d="M34.236 299.312C33.244 299.312 32.348 299.088 31.548 298.64C30.756 298.184 30.072 297.556 29.496 296.756C28.92 295.956 28.48 295.032 28.176 293.984C27.872 292.928 27.72 291.8 27.72 290.6C27.72 289.4 27.872 288.272 28.176 287.216C28.48 286.16 28.92 285.236 29.496 284.444C30.072 283.644 30.756 283.02 31.548 282.572C32.348 282.116 33.244 281.888 34.236 281.888C35.212 281.888 36.1 282.116 36.9 282.572C37.7 283.02 38.38 283.644 38.94 284.444C39.508 285.236 39.944 286.16 40.248 287.216C40.552 288.272 40.704 289.4 40.704 290.6C40.704 291.8 40.552 292.928 40.248 293.984C39.944 295.032 39.508 295.956 38.94 296.756C38.38 297.556 37.7 298.184 36.9 298.64C36.1 299.088 35.212 299.312 34.236 299.312ZM34.236 296.816C35.156 296.816 35.92 296.528 36.528 295.952C37.144 295.368 37.604 294.604 37.908 293.66C38.212 292.716 38.364 291.696 38.364 290.6C38.364 289.448 38.204 288.404 37.884 287.468C37.572 286.524 37.108 285.776 36.492 285.224C35.884 284.664 35.132 284.384 34.236 284.384C33.524 284.384 32.904 284.552 32.376 284.888C31.856 285.224 31.424 285.684 31.08 286.268C30.744 286.852 30.488 287.516 30.312 288.26C30.144 289.004 30.06 289.784 30.06 290.6C30.06 291.696 30.216 292.716 30.528 293.66C30.84 294.604 31.304 295.368 31.92 295.952C32.544 296.528 33.316 296.816 34.236 296.816ZM47.4621 299.312C46.4461 299.312 45.5341 299.076 44.7261 298.604C43.9261 298.132 43.2941 297.5 42.8301 296.708C42.3661 295.916 42.1341 295.036 42.1341 294.068H44.6301C44.6301 294.572 44.7501 295.032 44.9901 295.448C45.2301 295.864 45.5621 296.196 45.9861 296.444C46.4101 296.692 46.9021 296.816 47.4621 296.816C47.9661 296.816 48.4341 296.692 48.8661 296.444C49.2981 296.196 49.6461 295.864 49.9101 295.448C50.1741 295.032 50.3061 294.572 50.3061 294.068C50.3061 293.428 50.1381 292.892 49.8021 292.46C49.4661 292.028 48.9981 291.708 48.3981 291.5C47.8061 291.284 47.1221 291.176 46.3461 291.176V289.208C47.4021 289.208 48.2461 289 48.8781 288.584C49.5101 288.168 49.8261 287.548 49.8261 286.724C49.8261 286.292 49.7101 285.9 49.4781 285.548C49.2541 285.188 48.9541 284.904 48.5781 284.696C48.2101 284.48 47.8141 284.372 47.3901 284.372C46.9501 284.372 46.5261 284.48 46.1181 284.696C45.7181 284.904 45.3901 285.188 45.1341 285.548C44.8781 285.9 44.7501 286.292 44.7501 286.724H42.2541C42.2541 286.06 42.3901 285.436 42.6621 284.852C42.9421 284.26 43.3181 283.744 43.7901 283.304C44.2701 282.856 44.8141 282.508 45.4221 282.26C46.0381 282.004 46.6821 281.876 47.3541 281.876C48.2341 281.876 49.0501 282.096 49.8021 282.536C50.5621 282.968 51.1701 283.552 51.6261 284.288C52.0901 285.016 52.3221 285.828 52.3221 286.724C52.3221 287.436 52.1461 288.112 51.7941 288.752C51.4501 289.384 50.9701 289.832 50.3541 290.096C50.8901 290.288 51.3381 290.592 51.6981 291.008C52.0661 291.416 52.3421 291.888 52.5261 292.424C52.7101 292.952 52.8021 293.5 52.8021 294.068C52.8021 295.028 52.5581 295.908 52.0701 296.708C51.5821 297.5 50.9301 298.132 50.1141 298.604C49.3061 299.076 48.4221 299.312 47.4621 299.312Z" fill="#FEFEFE"/>
<path opacity="0.6" d="M27.96 46V34.8H29.08V44.88H34.224V46H27.96ZM38.6831 46.208C37.9471 46.208 37.2751 46.0187 36.6671 45.64C36.0645 45.2613 35.5818 44.7547 35.2191 44.12C34.8618 43.48 34.6831 42.7733 34.6831 42C34.6831 41.4133 34.7871 40.8667 34.9951 40.36C35.2031 39.848 35.4885 39.4 35.8511 39.016C36.2191 38.6267 36.6458 38.3227 37.1311 38.104C37.6165 37.8853 38.1338 37.776 38.6831 37.776C39.4191 37.776 40.0885 37.9653 40.6911 38.344C41.2991 38.7227 41.7818 39.232 42.1391 39.872C42.5018 40.512 42.6831 41.2213 42.6831 42C42.6831 42.5813 42.5791 43.1253 42.3711 43.632C42.1631 44.1387 41.8751 44.5867 41.5071 44.976C41.1445 45.36 40.7205 45.6613 40.2351 45.88C39.7551 46.0987 39.2378 46.208 38.6831 46.208ZM38.6831 45.088C39.2271 45.088 39.7151 44.9467 40.1471 44.664C40.5845 44.376 40.9285 43.9973 41.1791 43.528C41.4351 43.0587 41.5631 42.5493 41.5631 42C41.5631 41.44 41.4351 40.9253 41.1791 40.456C40.9231 39.9813 40.5765 39.6027 40.1391 39.32C39.7071 39.0373 39.2218 38.896 38.6831 38.896C38.1391 38.896 37.6485 39.04 37.2111 39.328C36.7791 39.6107 36.4351 39.9867 36.1791 40.456C35.9285 40.9253 35.8031 41.44 35.8031 42C35.8031 42.576 35.9338 43.0987 36.1951 43.568C36.4565 44.032 36.8058 44.4027 37.2431 44.68C37.6805 44.952 38.1605 45.088 38.6831 45.088ZM44.0381 46V38H45.1581V39.104C45.4408 38.6987 45.8088 38.376 46.2621 38.136C46.7155 37.896 47.2088 37.776 47.7421 37.776C48.0515 37.776 48.3501 37.816 48.6381 37.896L48.1821 39.008C47.9581 38.9387 47.7395 38.904 47.5261 38.904C47.0941 38.904 46.6968 39.0107 46.3341 39.224C45.9768 39.4373 45.6915 39.7227 45.4781 40.08C45.2648 40.4373 45.1581 40.8347 45.1581 41.272V46H44.0381ZM52.7456 46.208C52.0096 46.208 51.3376 46.0187 50.7296 45.64C50.127 45.2613 49.6443 44.7547 49.2816 44.12C48.9243 43.48 48.7456 42.7733 48.7456 42C48.7456 41.4133 48.8496 40.8667 49.0576 40.36C49.2656 39.848 49.551 39.4 49.9136 39.016C50.2816 38.6267 50.7083 38.3227 51.1936 38.104C51.679 37.8853 52.1963 37.776 52.7456 37.776C53.3376 37.776 53.8816 37.8933 54.3776 38.128C54.879 38.3627 55.3083 38.6907 55.6656 39.112C56.0283 39.5333 56.3003 40.0267 56.4816 40.592C56.6683 41.1573 56.7456 41.768 56.7136 42.424H49.9296C49.9936 42.9307 50.1536 43.384 50.4096 43.784C50.671 44.184 51.0016 44.5013 51.4016 44.736C51.807 44.9653 52.255 45.0827 52.7456 45.088C53.279 45.088 53.759 44.9493 54.1856 44.672C54.6176 44.3947 54.9643 44.0133 55.2256 43.528L56.3616 43.792C56.0416 44.5013 55.559 45.0827 54.9136 45.536C54.2683 45.984 53.5456 46.208 52.7456 46.208ZM49.8976 41.52H55.5856C55.5483 41.024 55.3963 40.5707 55.1296 40.16C54.8683 39.744 54.5296 39.4133 54.1136 39.168C53.6976 38.9173 53.2416 38.792 52.7456 38.792C52.2496 38.792 51.7963 38.9147 51.3856 39.16C50.975 39.4 50.639 39.728 50.3776 40.144C50.1163 40.5547 49.9563 41.0133 49.8976 41.52ZM58.085 46V38H59.205V39.104C59.493 38.6987 59.861 38.376 60.309 38.136C60.757 37.896 61.2477 37.776 61.781 37.776C62.3837 37.776 62.9357 37.9253 63.437 38.224C63.9383 38.5173 64.3303 38.9093 64.613 39.4C64.8957 38.9093 65.285 38.5173 65.781 38.224C66.277 37.9253 66.8263 37.776 67.429 37.776C68.0317 37.776 68.581 37.9227 69.077 38.216C69.573 38.5093 69.9677 38.904 70.261 39.4C70.5543 39.896 70.701 40.4453 70.701 41.048V46H69.581V41.296C69.581 40.8693 69.477 40.4747 69.269 40.112C69.061 39.7493 68.781 39.4587 68.429 39.24C68.0823 39.016 67.6957 38.904 67.269 38.904C66.8423 38.904 66.453 39.008 66.101 39.216C65.7543 39.4187 65.477 39.7013 65.269 40.064C65.061 40.4213 64.957 40.832 64.957 41.296V46H63.837V41.296C63.837 40.832 63.733 40.4213 63.525 40.064C63.317 39.7013 63.037 39.4187 62.685 39.216C62.333 39.008 61.9437 38.904 61.517 38.904C61.0957 38.904 60.709 39.016 60.357 39.24C60.005 39.4587 59.725 39.7493 59.517 40.112C59.309 40.4747 59.205 40.8693 59.205 41.296V46H58.085ZM76.3875 46V34.8H77.5075V46H76.3875ZM80.7831 50H79.6631V38H80.7831V39.496C81.0605 38.9893 81.4391 38.5787 81.9191 38.264C82.3991 37.9493 82.9698 37.792 83.6311 37.792C84.2125 37.792 84.7565 37.9013 85.2631 38.12C85.7751 38.3387 86.2231 38.6427 86.6071 39.032C86.9911 39.416 87.2925 39.8613 87.5111 40.368C87.7298 40.8747 87.8391 41.4187 87.8391 42C87.8391 42.5813 87.7298 43.128 87.5111 43.64C87.2925 44.152 86.9911 44.6027 86.6071 44.992C86.2231 45.376 85.7751 45.6773 85.2631 45.896C84.7565 46.1147 84.2125 46.224 83.6311 46.224C82.9698 46.224 82.3991 46.0667 81.9191 45.752C81.4391 45.4373 81.0605 45.0267 80.7831 44.52V50ZM83.6231 38.88C83.0631 38.88 82.5751 39.0213 82.1591 39.304C81.7485 39.5813 81.4311 39.9547 81.2071 40.424C80.9831 40.8933 80.8711 41.4187 80.8711 42C80.8711 42.5707 80.9805 43.0933 81.1991 43.568C81.4231 44.0427 81.7405 44.4213 82.1511 44.704C82.5671 44.9867 83.0578 45.128 83.6231 45.128C84.1778 45.128 84.6871 44.9893 85.1511 44.712C85.6205 44.4347 85.9965 44.0613 86.2791 43.592C86.5618 43.1173 86.7031 42.5867 86.7031 42C86.7031 41.4293 86.5645 40.9093 86.2871 40.44C86.0098 39.9653 85.6391 39.5867 85.1751 39.304C84.7111 39.0213 84.1938 38.88 83.6231 38.88ZM91.682 46.152C91.2447 46.1413 90.818 46.0613 90.402 45.912C89.986 45.7627 89.6233 45.56 89.314 45.304C89.0047 45.048 88.7833 44.7573 88.65 44.432L89.618 44.016C89.7033 44.224 89.8607 44.416 90.09 44.592C90.3247 44.7627 90.5913 44.9013 90.89 45.008C91.1887 45.1093 91.4847 45.16 91.778 45.16C92.1033 45.16 92.4073 45.1067 92.69 45C92.9727 44.8933 93.202 44.7413 93.378 44.544C93.5593 44.3413 93.65 44.104 93.65 43.832C93.65 43.5387 93.554 43.3093 93.362 43.144C93.17 42.9733 92.9273 42.84 92.634 42.744C92.3407 42.6427 92.0393 42.5467 91.73 42.456C91.1647 42.3013 90.666 42.1307 90.234 41.944C89.802 41.7573 89.4633 41.52 89.218 41.232C88.978 40.9387 88.858 40.5627 88.858 40.104C88.858 39.6187 88.994 39.2 89.266 38.848C89.5433 38.4907 89.9033 38.216 90.346 38.024C90.794 37.8267 91.2713 37.728 91.778 37.728C92.4287 37.728 93.0207 37.8693 93.554 38.152C94.0927 38.4347 94.482 38.8107 94.722 39.28L93.818 39.816C93.722 39.5973 93.57 39.408 93.362 39.248C93.154 39.088 92.9167 38.9627 92.65 38.872C92.3887 38.7813 92.122 38.7333 91.85 38.728C91.5087 38.7227 91.1913 38.7733 90.898 38.88C90.6047 38.9813 90.3673 39.1333 90.186 39.336C90.01 39.5387 89.922 39.7867 89.922 40.08C89.922 40.3733 90.01 40.5973 90.186 40.752C90.362 40.9013 90.5993 41.024 90.898 41.12C91.202 41.2107 91.5433 41.3173 91.922 41.44C92.4073 41.5947 92.8633 41.7707 93.29 41.968C93.7167 42.1653 94.0607 42.4107 94.322 42.704C94.5833 42.9973 94.7113 43.368 94.706 43.816C94.706 44.296 94.562 44.7147 94.274 45.072C93.986 45.4293 93.6127 45.704 93.154 45.896C92.6953 46.0827 92.2047 46.168 91.682 46.152ZM95.765 42.936V38H96.885V42.712C96.885 43.1493 96.9917 43.5467 97.205 43.904C97.4183 44.2613 97.7037 44.5467 98.061 44.76C98.4237 44.9733 98.821 45.08 99.253 45.08C99.6903 45.08 100.085 44.9733 100.437 44.76C100.794 44.5467 101.08 44.2613 101.293 43.904C101.506 43.5467 101.613 43.1493 101.613 42.712V38H102.733L102.741 46H101.621L101.613 44.88C101.33 45.2853 100.962 45.608 100.509 45.848C100.061 46.088 99.5703 46.208 99.037 46.208C98.4343 46.208 97.885 46.0613 97.389 45.768C96.893 45.4747 96.4983 45.08 96.205 44.584C95.9117 44.088 95.765 43.5387 95.765 42.936ZM104.335 46V38H105.455V39.104C105.743 38.6987 106.111 38.376 106.559 38.136C107.007 37.896 107.498 37.776 108.031 37.776C108.634 37.776 109.186 37.9253 109.687 38.224C110.188 38.5173 110.58 38.9093 110.863 39.4C111.146 38.9093 111.535 38.5173 112.031 38.224C112.527 37.9253 113.076 37.776 113.679 37.776C114.282 37.776 114.831 37.9227 115.327 38.216C115.823 38.5093 116.218 38.904 116.511 39.4C116.804 39.896 116.951 40.4453 116.951 41.048V46H115.831V41.296C115.831 40.8693 115.727 40.4747 115.519 40.112C115.311 39.7493 115.031 39.4587 114.679 39.24C114.332 39.016 113.946 38.904 113.519 38.904C113.092 38.904 112.703 39.008 112.351 39.216C112.004 39.4187 111.727 39.7013 111.519 40.064C111.311 40.4213 111.207 40.832 111.207 41.296V46H110.087V41.296C110.087 40.832 109.983 40.4213 109.775 40.064C109.567 39.7013 109.287 39.4187 108.935 39.216C108.583 39.008 108.194 38.904 107.767 38.904C107.346 38.904 106.959 39.016 106.607 39.24C106.255 39.4587 105.975 39.7493 105.767 40.112C105.559 40.4747 105.455 40.8693 105.455 41.296V46H104.335ZM122.398 46V34.8H126.102C126.875 34.8 127.6 34.9467 128.278 35.24C128.955 35.528 129.55 35.9307 130.062 36.448C130.574 36.96 130.974 37.5547 131.262 38.232C131.555 38.904 131.702 39.6267 131.702 40.4C131.702 41.1733 131.555 41.8987 131.262 42.576C130.974 43.248 130.574 43.8427 130.062 44.36C129.55 44.872 128.955 45.2747 128.278 45.568C127.6 45.856 126.875 46 126.102 46H122.398ZM123.518 44.88H126.102C126.72 44.88 127.299 44.7653 127.838 44.536C128.382 44.3013 128.859 43.9787 129.27 43.568C129.68 43.1573 130 42.6827 130.23 42.144C130.464 41.6 130.582 41.0187 130.582 40.4C130.582 39.7813 130.464 39.2027 130.23 38.664C130 38.12 129.678 37.6427 129.262 37.232C128.851 36.8213 128.376 36.5013 127.838 36.272C127.299 36.0373 126.72 35.92 126.102 35.92H123.518V44.88ZM136.558 46.208C135.822 46.208 135.15 46.0187 134.542 45.64C133.939 45.2613 133.457 44.7547 133.094 44.12C132.737 43.48 132.558 42.7733 132.558 42C132.558 41.4133 132.662 40.8667 132.87 40.36C133.078 39.848 133.363 39.4 133.726 39.016C134.094 38.6267 134.521 38.3227 135.006 38.104C135.491 37.8853 136.009 37.776 136.558 37.776C137.294 37.776 137.963 37.9653 138.566 38.344C139.174 38.7227 139.657 39.232 140.014 39.872C140.377 40.512 140.558 41.2213 140.558 42C140.558 42.5813 140.454 43.1253 140.246 43.632C140.038 44.1387 139.75 44.5867 139.382 44.976C139.019 45.36 138.595 45.6613 138.11 45.88C137.63 46.0987 137.113 46.208 136.558 46.208ZM136.558 45.088C137.102 45.088 137.59 44.9467 138.022 44.664C138.459 44.376 138.803 43.9973 139.054 43.528C139.31 43.0587 139.438 42.5493 139.438 42C139.438 41.44 139.31 40.9253 139.054 40.456C138.798 39.9813 138.451 39.6027 138.014 39.32C137.582 39.0373 137.097 38.896 136.558 38.896C136.014 38.896 135.523 39.04 135.086 39.328C134.654 39.6107 134.31 39.9867 134.054 40.456C133.803 40.9253 133.678 41.44 133.678 42C133.678 42.576 133.809 43.0987 134.07 43.568C134.331 44.032 134.681 44.4027 135.118 44.68C135.555 44.952 136.035 45.088 136.558 45.088ZM141.851 46V34H142.971V46H141.851ZM148.355 46.208C147.619 46.208 146.947 46.0187 146.339 45.64C145.736 45.2613 145.254 44.7547 144.891 44.12C144.534 43.48 144.355 42.7733 144.355 42C144.355 41.4133 144.459 40.8667 144.667 40.36C144.875 39.848 145.16 39.4 145.523 39.016C145.891 38.6267 146.318 38.3227 146.803 38.104C147.288 37.8853 147.806 37.776 148.355 37.776C149.091 37.776 149.76 37.9653 150.363 38.344C150.971 38.7227 151.454 39.232 151.811 39.872C152.174 40.512 152.355 41.2213 152.355 42C152.355 42.5813 152.251 43.1253 152.043 43.632C151.835 44.1387 151.547 44.5867 151.179 44.976C150.816 45.36 150.392 45.6613 149.907 45.88C149.427 46.0987 148.91 46.208 148.355 46.208ZM148.355 45.088C148.899 45.088 149.387 44.9467 149.819 44.664C150.256 44.376 150.6 43.9973 150.851 43.528C151.107 43.0587 151.235 42.5493 151.235 42C151.235 41.44 151.107 40.9253 150.851 40.456C150.595 39.9813 150.248 39.6027 149.811 39.32C149.379 39.0373 148.894 38.896 148.355 38.896C147.811 38.896 147.32 39.04 146.883 39.328C146.451 39.6107 146.107 39.9867 145.851 40.456C145.6 40.9253 145.475 41.44 145.475 42C145.475 42.576 145.606 43.0987 145.867 43.568C146.128 44.032 146.478 44.4027 146.915 44.68C147.352 44.952 147.832 45.088 148.355 45.088ZM153.71 46V38H154.83V39.104C155.113 38.6987 155.481 38.376 155.934 38.136C156.387 37.896 156.881 37.776 157.414 37.776C157.723 37.776 158.022 37.816 158.31 37.896L157.854 39.008C157.63 38.9387 157.411 38.904 157.198 38.904C156.766 38.904 156.369 39.0107 156.006 39.224C155.649 39.4373 155.363 39.7227 155.15 40.08C154.937 40.4373 154.83 40.8347 154.83 41.272V46H153.71Z" fill="#FEFEFE"/>
<path opacity="0.6" d="M37.976 186.192L36.64 184.856C36.1707 185.272 35.6373 185.597 35.04 185.832C34.448 186.067 33.8213 186.184 33.16 186.184C32.3973 186.184 31.6827 186.035 31.016 185.736C30.3493 185.432 29.7627 185.016 29.256 184.488C28.7493 183.955 28.352 183.336 28.064 182.632C27.7813 181.928 27.64 181.176 27.64 180.376C27.64 179.576 27.7813 178.827 28.064 178.128C28.352 177.424 28.7493 176.805 29.256 176.272C29.7627 175.739 30.3493 175.323 31.016 175.024C31.6827 174.72 32.3973 174.568 33.16 174.568C33.9227 174.568 34.6347 174.72 35.296 175.024C35.9627 175.323 36.5493 175.739 37.056 176.272C37.5627 176.805 37.9573 177.424 38.24 178.128C38.528 178.827 38.672 179.576 38.672 180.376C38.672 181.08 38.56 181.744 38.336 182.368C38.112 182.992 37.8027 183.555 37.408 184.056L38.768 185.4L37.976 186.192ZM33.16 185.064C33.6453 185.064 34.12 184.976 34.584 184.8C35.0533 184.624 35.4667 184.373 35.824 184.048L34.168 182.392L34.96 181.592L36.584 183.224C36.8987 182.824 37.1387 182.379 37.304 181.888C37.4693 181.397 37.552 180.893 37.552 180.376C37.552 179.731 37.4373 179.125 37.208 178.56C36.9787 177.995 36.6613 177.496 36.256 177.064C35.856 176.632 35.3893 176.296 34.856 176.056C34.328 175.811 33.7627 175.688 33.16 175.688C32.5467 175.688 31.9733 175.813 31.44 176.064C30.912 176.309 30.4453 176.651 30.04 177.088C29.64 177.52 29.3253 178.019 29.096 178.584C28.872 179.144 28.76 179.741 28.76 180.376C28.76 181.021 28.8747 181.627 29.104 182.192C29.3333 182.757 29.6507 183.256 30.056 183.688C30.4613 184.12 30.928 184.459 31.456 184.704C31.9893 184.944 32.5573 185.064 33.16 185.064ZM39.9525 182.936V178H41.0725V182.712C41.0725 183.149 41.1792 183.547 41.3925 183.904C41.6058 184.261 41.8912 184.547 42.2485 184.76C42.6112 184.973 43.0085 185.08 43.4405 185.08C43.8778 185.08 44.2725 184.973 44.6245 184.76C44.9818 184.547 45.2672 184.261 45.4805 183.904C45.6938 183.547 45.8005 183.149 45.8005 182.712V178H46.9205L46.9285 186H45.8085L45.8005 184.88C45.5178 185.285 45.1498 185.608 44.6965 185.848C44.2485 186.088 43.7578 186.208 43.2245 186.208C42.6218 186.208 42.0725 186.061 41.5765 185.768C41.0805 185.475 40.6858 185.08 40.3925 184.584C40.0992 184.088 39.9525 183.539 39.9525 182.936ZM48.5225 178H49.6425V186H48.5225V178ZM49.0905 176.6C48.9092 176.6 48.7545 176.541 48.6265 176.424C48.5038 176.301 48.4425 176.149 48.4425 175.968C48.4425 175.787 48.5038 175.637 48.6265 175.52C48.7545 175.397 48.9092 175.336 49.0905 175.336C49.2665 175.336 49.4158 175.397 49.5385 175.52C49.6665 175.637 49.7305 175.787 49.7305 175.968C49.7305 176.149 49.6692 176.301 49.5465 176.424C49.4238 176.541 49.2718 176.6 49.0905 176.6ZM53.9789 186.152C53.5415 186.141 53.1149 186.061 52.6989 185.912C52.2829 185.763 51.9202 185.56 51.6109 185.304C51.3015 185.048 51.0802 184.757 50.9469 184.432L51.9149 184.016C52.0002 184.224 52.1575 184.416 52.3869 184.592C52.6215 184.763 52.8882 184.901 53.1869 185.008C53.4855 185.109 53.7815 185.16 54.0749 185.16C54.4002 185.16 54.7042 185.107 54.9869 185C55.2695 184.893 55.4989 184.741 55.6749 184.544C55.8562 184.341 55.9469 184.104 55.9469 183.832C55.9469 183.539 55.8509 183.309 55.6589 183.144C55.4669 182.973 55.2242 182.84 54.9309 182.744C54.6375 182.643 54.3362 182.547 54.0269 182.456C53.4615 182.301 52.9629 182.131 52.5309 181.944C52.0989 181.757 51.7602 181.52 51.5149 181.232C51.2749 180.939 51.1549 180.563 51.1549 180.104C51.1549 179.619 51.2909 179.2 51.5629 178.848C51.8402 178.491 52.2002 178.216 52.6429 178.024C53.0909 177.827 53.5682 177.728 54.0749 177.728C54.7255 177.728 55.3175 177.869 55.8509 178.152C56.3895 178.435 56.7789 178.811 57.0189 179.28L56.1149 179.816C56.0189 179.597 55.8669 179.408 55.6589 179.248C55.4509 179.088 55.2135 178.963 54.9469 178.872C54.6855 178.781 54.4189 178.733 54.1469 178.728C53.8055 178.723 53.4882 178.773 53.1949 178.88C52.9015 178.981 52.6642 179.133 52.4829 179.336C52.3069 179.539 52.2189 179.787 52.2189 180.08C52.2189 180.373 52.3069 180.597 52.4829 180.752C52.6589 180.901 52.8962 181.024 53.1949 181.12C53.4989 181.211 53.8402 181.317 54.2189 181.44C54.7042 181.595 55.1602 181.771 55.5869 181.968C56.0135 182.165 56.3575 182.411 56.6189 182.704C56.8802 182.997 57.0082 183.368 57.0029 183.816C57.0029 184.296 56.8589 184.715 56.5709 185.072C56.2829 185.429 55.9095 185.704 55.4509 185.896C54.9922 186.083 54.5015 186.168 53.9789 186.152ZM62.2256 186V174.8H63.4416L69.3536 183.976V174.8H70.4736V186H69.2656L63.3456 176.824V186H62.2256ZM75.855 186.208C75.119 186.208 74.447 186.019 73.839 185.64C73.2363 185.261 72.7537 184.755 72.391 184.12C72.0337 183.48 71.855 182.773 71.855 182C71.855 181.413 71.959 180.867 72.167 180.36C72.375 179.848 72.6603 179.4 73.023 179.016C73.391 178.627 73.8177 178.323 74.303 178.104C74.7883 177.885 75.3057 177.776 75.855 177.776C76.591 177.776 77.2603 177.965 77.863 178.344C78.471 178.723 78.9537 179.232 79.311 179.872C79.6737 180.512 79.855 181.221 79.855 182C79.855 182.581 79.751 183.125 79.543 183.632C79.335 184.139 79.047 184.587 78.679 184.976C78.3163 185.36 77.8923 185.661 77.407 185.88C76.927 186.099 76.4097 186.208 75.855 186.208ZM75.855 185.088C76.399 185.088 76.887 184.947 77.319 184.664C77.7563 184.376 78.1003 183.997 78.351 183.528C78.607 183.059 78.735 182.549 78.735 182C78.735 181.44 78.607 180.925 78.351 180.456C78.095 179.981 77.7483 179.603 77.311 179.32C76.879 179.037 76.3937 178.896 75.855 178.896C75.311 178.896 74.8203 179.04 74.383 179.328C73.951 179.611 73.607 179.987 73.351 180.456C73.1003 180.925 72.975 181.44 72.975 182C72.975 182.576 73.1057 183.099 73.367 183.568C73.6283 184.032 73.9777 184.403 74.415 184.68C74.8523 184.952 75.3323 185.088 75.855 185.088ZM83.6976 186.152C83.2603 186.141 82.8336 186.061 82.4176 185.912C82.0016 185.763 81.639 185.56 81.3296 185.304C81.0203 185.048 80.799 184.757 80.6656 184.432L81.6336 184.016C81.719 184.224 81.8763 184.416 82.1056 184.592C82.3403 184.763 82.607 184.901 82.9056 185.008C83.2043 185.109 83.5003 185.16 83.7936 185.16C84.119 185.16 84.423 185.107 84.7056 185C84.9883 184.893 85.2176 184.741 85.3936 184.544C85.575 184.341 85.6656 184.104 85.6656 183.832C85.6656 183.539 85.5696 183.309 85.3776 183.144C85.1856 182.973 84.943 182.84 84.6496 182.744C84.3563 182.643 84.055 182.547 83.7456 182.456C83.1803 182.301 82.6816 182.131 82.2496 181.944C81.8176 181.757 81.479 181.52 81.2336 181.232C80.9936 180.939 80.8736 180.563 80.8736 180.104C80.8736 179.619 81.0096 179.2 81.2816 178.848C81.559 178.491 81.919 178.216 82.3616 178.024C82.8096 177.827 83.287 177.728 83.7936 177.728C84.4443 177.728 85.0363 177.869 85.5696 178.152C86.1083 178.435 86.4976 178.811 86.7376 179.28L85.8336 179.816C85.7376 179.597 85.5856 179.408 85.3776 179.248C85.1696 179.088 84.9323 178.963 84.6656 178.872C84.4043 178.781 84.1376 178.733 83.8656 178.728C83.5243 178.723 83.207 178.773 82.9136 178.88C82.6203 178.981 82.383 179.133 82.2016 179.336C82.0256 179.539 81.9376 179.787 81.9376 180.08C81.9376 180.373 82.0256 180.597 82.2016 180.752C82.3776 180.901 82.615 181.024 82.9136 181.12C83.2176 181.211 83.559 181.317 83.9376 181.44C84.423 181.595 84.879 181.771 85.3056 181.968C85.7323 182.165 86.0763 182.411 86.3376 182.704C86.599 182.997 86.727 183.368 86.7216 183.816C86.7216 184.296 86.5776 184.715 86.2896 185.072C86.0016 185.429 85.6283 185.704 85.1696 185.896C84.711 186.083 84.2203 186.168 83.6976 186.152ZM92.1886 179.12H90.2766L90.2686 186H89.1486L89.1566 179.12H87.7086V178H89.1566L89.1486 175.488H90.2686L90.2766 178H92.1886V179.12ZM93.6163 186V178H94.7363V179.104C95.0189 178.699 95.3869 178.376 95.8403 178.136C96.2936 177.896 96.7869 177.776 97.3203 177.776C97.6296 177.776 97.9283 177.816 98.2163 177.896L97.7603 179.008C97.5363 178.939 97.3176 178.904 97.1043 178.904C96.6723 178.904 96.2749 179.011 95.9123 179.224C95.5549 179.437 95.2696 179.723 95.0563 180.08C94.8429 180.437 94.7363 180.835 94.7363 181.272V186H93.6163ZM98.8588 182.936V178H99.9788V182.712C99.9788 183.149 100.085 183.547 100.299 183.904C100.512 184.261 100.797 184.547 101.155 184.76C101.517 184.973 101.915 185.08 102.347 185.08C102.784 185.08 103.179 184.973 103.531 184.76C103.888 184.547 104.173 184.261 104.387 183.904C104.6 183.547 104.707 183.149 104.707 182.712V178H105.827L105.835 186H104.715L104.707 184.88C104.424 185.285 104.056 185.608 103.603 185.848C103.155 186.088 102.664 186.208 102.131 186.208C101.528 186.208 100.979 186.061 100.483 185.768C99.9868 185.475 99.5921 185.08 99.2988 184.584C99.0054 184.088 98.8588 183.539 98.8588 182.936ZM113.95 174H115.07V186H113.95V184.504C113.673 185.016 113.292 185.429 112.806 185.744C112.326 186.053 111.756 186.208 111.094 186.208C110.513 186.208 109.969 186.099 109.462 185.88C108.956 185.661 108.508 185.36 108.118 184.976C107.734 184.587 107.433 184.139 107.214 183.632C106.996 183.125 106.886 182.581 106.886 182C106.886 181.419 106.996 180.875 107.214 180.368C107.433 179.856 107.734 179.408 108.118 179.024C108.508 178.635 108.956 178.331 109.462 178.112C109.969 177.893 110.513 177.784 111.094 177.784C111.756 177.784 112.326 177.941 112.806 178.256C113.292 178.565 113.673 178.973 113.95 179.48V174ZM111.102 185.12C111.673 185.12 112.164 184.981 112.574 184.704C112.985 184.421 113.3 184.043 113.518 183.568C113.742 183.093 113.854 182.571 113.854 182C113.854 181.413 113.742 180.885 113.518 180.416C113.294 179.941 112.977 179.565 112.566 179.288C112.156 179.011 111.668 178.872 111.102 178.872C110.537 178.872 110.022 179.013 109.558 179.296C109.094 179.573 108.724 179.949 108.446 180.424C108.169 180.899 108.03 181.424 108.03 182C108.03 182.581 108.172 183.109 108.454 183.584C108.737 184.053 109.11 184.427 109.574 184.704C110.044 184.981 110.553 185.12 111.102 185.12ZM120.835 186V174.8H127.651V175.92H121.955V179.44H126.667V180.56H121.955V184.88H127.651V186H120.835ZM128.671 186L131.599 181.984L128.679 177.976H130.063L132.295 181.024L134.519 177.976H135.895L132.983 181.984L135.911 186H134.527L132.295 182.928L130.055 186H128.671ZM140.449 186.208C139.713 186.208 139.041 186.019 138.433 185.64C137.83 185.261 137.347 184.755 136.985 184.12C136.627 183.48 136.449 182.773 136.449 182C136.449 181.413 136.553 180.867 136.761 180.36C136.969 179.848 137.254 179.4 137.617 179.016C137.985 178.627 138.411 178.323 138.897 178.104C139.382 177.885 139.899 177.776 140.449 177.776C141.041 177.776 141.585 177.893 142.081 178.128C142.582 178.363 143.011 178.691 143.369 179.112C143.731 179.533 144.003 180.027 144.185 180.592C144.371 181.157 144.449 181.768 144.417 182.424H137.633C137.697 182.931 137.857 183.384 138.113 183.784C138.374 184.184 138.705 184.501 139.105 184.736C139.51 184.965 139.958 185.083 140.449 185.088C140.982 185.088 141.462 184.949 141.889 184.672C142.321 184.395 142.667 184.013 142.929 183.528L144.065 183.792C143.745 184.501 143.262 185.083 142.617 185.536C141.971 185.984 141.249 186.208 140.449 186.208ZM137.601 181.52H143.289C143.251 181.024 143.099 180.571 142.833 180.16C142.571 179.744 142.233 179.413 141.817 179.168C141.401 178.917 140.945 178.792 140.449 178.792C139.953 178.792 139.499 178.915 139.089 179.16C138.678 179.4 138.342 179.728 138.081 180.144C137.819 180.555 137.659 181.013 137.601 181.52ZM145.788 186V178H146.908V179.104C147.191 178.699 147.559 178.376 148.012 178.136C148.465 177.896 148.959 177.776 149.492 177.776C149.801 177.776 150.1 177.816 150.388 177.896L149.932 179.008C149.708 178.939 149.489 178.904 149.276 178.904C148.844 178.904 148.447 179.011 148.084 179.224C147.727 179.437 147.441 179.723 147.228 180.08C147.015 180.437 146.908 180.835 146.908 181.272V186H145.788ZM156.688 183.992L157.688 184.536C157.325 185.043 156.864 185.448 156.304 185.752C155.749 186.056 155.146 186.208 154.496 186.208C153.76 186.208 153.088 186.019 152.48 185.64C151.877 185.261 151.394 184.755 151.032 184.12C150.674 183.48 150.496 182.773 150.496 182C150.496 181.413 150.6 180.867 150.808 180.36C151.016 179.848 151.301 179.4 151.664 179.016C152.032 178.627 152.458 178.323 152.944 178.104C153.429 177.885 153.946 177.776 154.496 177.776C155.146 177.776 155.749 177.928 156.304 178.232C156.864 178.536 157.325 178.944 157.688 179.456L156.688 179.992C156.41 179.64 156.077 179.371 155.688 179.184C155.298 178.992 154.901 178.896 154.496 178.896C153.957 178.896 153.469 179.04 153.032 179.328C152.594 179.611 152.248 179.987 151.992 180.456C151.741 180.925 151.616 181.44 151.616 182C151.616 182.56 151.744 183.075 152 183.544C152.261 184.013 152.61 184.389 153.048 184.672C153.485 184.949 153.968 185.088 154.496 185.088C154.933 185.088 155.344 184.987 155.728 184.784C156.112 184.581 156.432 184.317 156.688 183.992ZM158.991 178H160.111V186H158.991V178ZM159.559 176.6C159.378 176.6 159.223 176.541 159.095 176.424C158.973 176.301 158.911 176.149 158.911 175.968C158.911 175.787 158.973 175.637 159.095 175.52C159.223 175.397 159.378 175.336 159.559 175.336C159.735 175.336 159.885 175.397 160.007 175.52C160.135 175.637 160.199 175.787 160.199 175.968C160.199 176.149 160.138 176.301 160.015 176.424C159.893 176.541 159.741 176.6 159.559 176.6ZM166.126 179.12H164.214L164.206 186H163.086L163.094 179.12H161.646V178H163.094L163.086 175.488H164.206L164.214 178H166.126V179.12ZM173.911 178H175.031V186H173.911L173.871 184.512C173.61 185.019 173.244 185.429 172.775 185.744C172.306 186.053 171.746 186.208 171.095 186.208C170.508 186.208 169.959 186.099 169.447 185.88C168.935 185.656 168.484 185.349 168.095 184.96C167.706 184.571 167.402 184.12 167.183 183.608C166.964 183.096 166.855 182.547 166.855 181.96C166.855 181.384 166.962 180.843 167.175 180.336C167.394 179.829 167.692 179.384 168.071 179C168.455 178.616 168.898 178.317 169.399 178.104C169.906 177.885 170.447 177.776 171.023 177.776C171.69 177.776 172.271 177.936 172.767 178.256C173.263 178.571 173.658 178.984 173.951 179.496L173.911 178ZM171.071 185.12C171.642 185.12 172.132 184.981 172.543 184.704C172.954 184.421 173.268 184.043 173.487 183.568C173.711 183.093 173.823 182.571 173.823 182C173.823 181.413 173.711 180.885 173.487 180.416C173.263 179.941 172.946 179.565 172.535 179.288C172.124 179.011 171.636 178.872 171.071 178.872C170.506 178.872 169.988 179.013 169.519 179.296C169.055 179.573 168.684 179.949 168.407 180.424C168.135 180.899 167.999 181.424 167.999 182C167.999 182.581 168.14 183.109 168.423 183.584C168.706 184.053 169.079 184.427 169.543 184.704C170.012 184.981 170.522 185.12 171.071 185.12ZM180.72 179.12H178.808L178.8 186H177.68L177.688 179.12H176.24V178H177.688L177.68 175.488H178.8L178.808 178H180.72V179.12ZM182.085 178H183.205V186H182.085V178ZM182.653 176.6C182.472 176.6 182.317 176.541 182.189 176.424C182.066 176.301 182.005 176.149 182.005 175.968C182.005 175.787 182.066 175.637 182.189 175.52C182.317 175.397 182.472 175.336 182.653 175.336C182.829 175.336 182.978 175.397 183.101 175.52C183.229 175.637 183.293 175.787 183.293 175.968C183.293 176.149 183.232 176.301 183.109 176.424C182.986 176.541 182.834 176.6 182.653 176.6ZM188.574 186.208C187.838 186.208 187.166 186.019 186.558 185.64C185.955 185.261 185.472 184.755 185.11 184.12C184.752 183.48 184.574 182.773 184.574 182C184.574 181.413 184.678 180.867 184.886 180.36C185.094 179.848 185.379 179.4 185.742 179.016C186.11 178.627 186.536 178.323 187.022 178.104C187.507 177.885 188.024 177.776 188.574 177.776C189.31 177.776 189.979 177.965 190.582 178.344C191.19 178.723 191.672 179.232 192.03 179.872C192.392 180.512 192.574 181.221 192.574 182C192.574 182.581 192.47 183.125 192.262 183.632C192.054 184.139 191.766 184.587 191.398 184.976C191.035 185.36 190.611 185.661 190.126 185.88C189.646 186.099 189.128 186.208 188.574 186.208ZM188.574 185.088C189.118 185.088 189.606 184.947 190.038 184.664C190.475 184.376 190.819 183.997 191.07 183.528C191.326 183.059 191.454 182.549 191.454 182C191.454 181.44 191.326 180.925 191.07 180.456C190.814 179.981 190.467 179.603 190.03 179.32C189.598 179.037 189.112 178.896 188.574 178.896C188.03 178.896 187.539 179.04 187.102 179.328C186.67 179.611 186.326 179.987 186.07 180.456C185.819 180.925 185.694 181.44 185.694 182C185.694 182.576 185.824 183.099 186.086 183.568C186.347 184.032 186.696 184.403 187.134 184.68C187.571 184.952 188.051 185.088 188.574 185.088ZM200.905 181.048V186H199.785V181.272C199.785 180.835 199.678 180.437 199.465 180.08C199.251 179.723 198.966 179.437 198.609 179.224C198.251 179.011 197.854 178.904 197.417 178.904C196.985 178.904 196.587 179.011 196.225 179.224C195.867 179.437 195.582 179.723 195.369 180.08C195.155 180.437 195.049 180.835 195.049 181.272V186H193.929V178H195.049V179.104C195.331 178.699 195.699 178.376 196.153 178.136C196.606 177.896 197.099 177.776 197.633 177.776C198.235 177.776 198.785 177.923 199.281 178.216C199.777 178.509 200.171 178.904 200.465 179.4C200.758 179.896 200.905 180.445 200.905 181.048Z" fill="#FEFEFE"/>
<path opacity="0.6" d="M27.96 322V310.8H34.776V311.92H29.08V315.44H33.792V316.56H29.08V320.88H34.776V322H27.96ZM35.7963 322L38.7243 317.984L35.8043 313.976H37.1883L39.4203 317.024L41.6443 313.976H43.0203L40.1083 317.984L43.0363 322H41.6523L39.4203 318.928L37.1803 322H35.7963ZM49.7658 319.992L50.7658 320.536C50.4031 321.043 49.9418 321.448 49.3818 321.752C48.8271 322.056 48.2244 322.208 47.5738 322.208C46.8378 322.208 46.1658 322.019 45.5578 321.64C44.9551 321.261 44.4724 320.755 44.1098 320.12C43.7524 319.48 43.5738 318.773 43.5738 318C43.5738 317.413 43.6778 316.867 43.8858 316.36C44.0938 315.848 44.3791 315.4 44.7418 315.016C45.1098 314.627 45.5364 314.323 46.0218 314.104C46.5071 313.885 47.0244 313.776 47.5738 313.776C48.2244 313.776 48.8271 313.928 49.3818 314.232C49.9418 314.536 50.4031 314.944 50.7658 315.456L49.7658 315.992C49.4884 315.64 49.1551 315.371 48.7658 315.184C48.3764 314.992 47.9791 314.896 47.5738 314.896C47.0351 314.896 46.5471 315.04 46.1098 315.328C45.6724 315.611 45.3258 315.987 45.0698 316.456C44.8191 316.925 44.6938 317.44 44.6938 318C44.6938 318.56 44.8218 319.075 45.0778 319.544C45.3391 320.013 45.6884 320.389 46.1258 320.672C46.5631 320.949 47.0458 321.088 47.5738 321.088C48.0111 321.088 48.4218 320.987 48.8058 320.784C49.1898 320.581 49.5098 320.317 49.7658 319.992ZM55.6206 322.208C54.8846 322.208 54.2126 322.019 53.6046 321.64C53.002 321.261 52.5193 320.755 52.1566 320.12C51.7993 319.48 51.6206 318.773 51.6206 318C51.6206 317.413 51.7246 316.867 51.9326 316.36C52.1406 315.848 52.426 315.4 52.7886 315.016C53.1566 314.627 53.5833 314.323 54.0686 314.104C54.554 313.885 55.0713 313.776 55.6206 313.776C56.2126 313.776 56.7566 313.893 57.2526 314.128C57.754 314.363 58.1833 314.691 58.5406 315.112C58.9033 315.533 59.1753 316.027 59.3566 316.592C59.5433 317.157 59.6206 317.768 59.5886 318.424H52.8046C52.8686 318.931 53.0286 319.384 53.2846 319.784C53.546 320.184 53.8766 320.501 54.2766 320.736C54.682 320.965 55.13 321.083 55.6206 321.088C56.154 321.088 56.634 320.949 57.0606 320.672C57.4926 320.395 57.8393 320.013 58.1006 319.528L59.2366 319.792C58.9166 320.501 58.434 321.083 57.7886 321.536C57.1433 321.984 56.4206 322.208 55.6206 322.208ZM52.7726 317.52H58.4606C58.4233 317.024 58.2713 316.571 58.0046 316.16C57.7433 315.744 57.4046 315.413 56.9886 315.168C56.5726 314.917 56.1166 314.792 55.6206 314.792C55.1246 314.792 54.6713 314.915 54.2606 315.16C53.85 315.4 53.514 315.728 53.2526 316.144C52.9913 316.555 52.8313 317.013 52.7726 317.52ZM62.08 326H60.96V314H62.08V315.496C62.3573 314.989 62.736 314.579 63.216 314.264C63.696 313.949 64.2667 313.792 64.928 313.792C65.5093 313.792 66.0533 313.901 66.56 314.12C67.072 314.339 67.52 314.643 67.904 315.032C68.288 315.416 68.5893 315.861 68.808 316.368C69.0267 316.875 69.136 317.419 69.136 318C69.136 318.581 69.0267 319.128 68.808 319.64C68.5893 320.152 68.288 320.603 67.904 320.992C67.52 321.376 67.072 321.677 66.56 321.896C66.0533 322.115 65.5093 322.224 64.928 322.224C64.2667 322.224 63.696 322.067 63.216 321.752C62.736 321.437 62.3573 321.027 62.08 320.52V326ZM64.92 314.88C64.36 314.88 63.872 315.021 63.456 315.304C63.0453 315.581 62.728 315.955 62.504 316.424C62.28 316.893 62.168 317.419 62.168 318C62.168 318.571 62.2773 319.093 62.496 319.568C62.72 320.043 63.0373 320.421 63.448 320.704C63.864 320.987 64.3547 321.128 64.92 321.128C65.4747 321.128 65.984 320.989 66.448 320.712C66.9173 320.435 67.2933 320.061 67.576 319.592C67.8587 319.117 68 318.587 68 318C68 317.429 67.8613 316.909 67.584 316.44C67.3067 315.965 66.936 315.587 66.472 315.304C66.008 315.021 65.4907 314.88 64.92 314.88ZM74.4386 315.12H72.5266L72.5186 322H71.3986L71.4066 315.12H69.9586V314H71.4066L71.3986 311.488H72.5186L72.5266 314H74.4386V315.12ZM79.1675 322.208C78.4315 322.208 77.7595 322.019 77.1515 321.64C76.5488 321.261 76.0662 320.755 75.7035 320.12C75.3462 319.48 75.1675 318.773 75.1675 318C75.1675 317.413 75.2715 316.867 75.4795 316.36C75.6875 315.848 75.9728 315.4 76.3355 315.016C76.7035 314.627 77.1302 314.323 77.6155 314.104C78.1008 313.885 78.6182 313.776 79.1675 313.776C79.7595 313.776 80.3035 313.893 80.7995 314.128C81.3008 314.363 81.7302 314.691 82.0875 315.112C82.4502 315.533 82.7222 316.027 82.9035 316.592C83.0902 317.157 83.1675 317.768 83.1355 318.424H76.3515C76.4155 318.931 76.5755 319.384 76.8315 319.784C77.0928 320.184 77.4235 320.501 77.8235 320.736C78.2288 320.965 78.6768 321.083 79.1675 321.088C79.7008 321.088 80.1808 320.949 80.6075 320.672C81.0395 320.395 81.3862 320.013 81.6475 319.528L82.7835 319.792C82.4635 320.501 81.9808 321.083 81.3355 321.536C80.6902 321.984 79.9675 322.208 79.1675 322.208ZM76.3195 317.52H82.0075C81.9702 317.024 81.8182 316.571 81.5515 316.16C81.2902 315.744 80.9515 315.413 80.5355 315.168C80.1195 314.917 79.6635 314.792 79.1675 314.792C78.6715 314.792 78.2182 314.915 77.8075 315.16C77.3968 315.4 77.0608 315.728 76.7995 316.144C76.5382 316.555 76.3782 317.013 76.3195 317.52ZM84.1088 318.936V314H85.2288V318.712C85.2288 319.149 85.3354 319.547 85.5488 319.904C85.7621 320.261 86.0474 320.547 86.4048 320.76C86.7674 320.973 87.1648 321.08 87.5968 321.08C88.0341 321.08 88.4288 320.973 88.7808 320.76C89.1381 320.547 89.4234 320.261 89.6368 319.904C89.8501 319.547 89.9568 319.149 89.9568 318.712V314H91.0768L91.0848 322H89.9648L89.9568 320.88C89.6741 321.285 89.3061 321.608 88.8528 321.848C88.4048 322.088 87.9141 322.208 87.3808 322.208C86.7781 322.208 86.2288 322.061 85.7328 321.768C85.2368 321.475 84.8421 321.08 84.5488 320.584C84.2554 320.088 84.1088 319.539 84.1088 318.936ZM92.6788 322V314H93.7988V315.104C94.0814 314.699 94.4494 314.376 94.9028 314.136C95.3561 313.896 95.8494 313.776 96.3828 313.776C96.6921 313.776 96.9908 313.816 97.2788 313.896L96.8228 315.008C96.5988 314.939 96.3801 314.904 96.1668 314.904C95.7348 314.904 95.3374 315.011 94.9748 315.224C94.6174 315.437 94.3321 315.723 94.1188 316.08C93.9054 316.437 93.7988 316.835 93.7988 317.272V322H92.6788ZM106.153 322.208C105.556 322.208 104.977 322.115 104.417 321.928C103.863 321.741 103.377 321.475 102.961 321.128C102.545 320.781 102.252 320.368 102.081 319.888L103.129 319.496C103.247 319.827 103.46 320.112 103.769 320.352C104.084 320.587 104.449 320.768 104.865 320.896C105.287 321.024 105.716 321.088 106.153 321.088C106.665 321.088 107.143 321.003 107.585 320.832C108.028 320.661 108.385 320.424 108.657 320.12C108.929 319.811 109.065 319.448 109.065 319.032C109.065 318.611 108.924 318.264 108.641 317.992C108.359 317.72 107.993 317.507 107.545 317.352C107.103 317.192 106.639 317.069 106.153 316.984C105.391 316.851 104.705 316.669 104.097 316.44C103.495 316.211 103.017 315.888 102.665 315.472C102.313 315.051 102.137 314.496 102.137 313.808C102.137 313.163 102.324 312.603 102.697 312.128C103.071 311.653 103.561 311.285 104.169 311.024C104.783 310.763 105.444 310.632 106.153 310.632C106.735 310.632 107.303 310.723 107.857 310.904C108.412 311.085 108.9 311.349 109.321 311.696C109.748 312.043 110.055 312.467 110.241 312.968L109.177 313.352C109.06 313.016 108.844 312.731 108.529 312.496C108.22 312.256 107.857 312.075 107.441 311.952C107.025 311.824 106.596 311.76 106.153 311.76C105.647 311.755 105.172 311.84 104.729 312.016C104.292 312.187 103.937 312.427 103.665 312.736C103.393 313.04 103.257 313.397 103.257 313.808C103.257 314.288 103.383 314.659 103.633 314.92C103.889 315.176 104.236 315.368 104.673 315.496C105.111 315.624 105.604 315.739 106.153 315.84C106.868 315.963 107.532 316.155 108.145 316.416C108.759 316.672 109.252 317.016 109.625 317.448C109.999 317.875 110.185 318.403 110.185 319.032C110.185 319.672 109.999 320.232 109.625 320.712C109.252 321.187 108.759 321.555 108.145 321.816C107.537 322.077 106.873 322.208 106.153 322.208ZM111.929 314H113.049V322H111.929V314ZM112.497 312.6C112.315 312.6 112.161 312.541 112.033 312.424C111.91 312.301 111.849 312.149 111.849 311.968C111.849 311.787 111.91 311.637 112.033 311.52C112.161 311.397 112.315 311.336 112.497 311.336C112.673 311.336 112.822 311.397 112.945 311.52C113.073 311.637 113.137 311.787 113.137 311.968C113.137 312.149 113.075 312.301 112.953 312.424C112.83 312.541 112.678 312.6 112.497 312.6ZM121.92 317.048V322H120.8V317.272C120.8 316.835 120.694 316.437 120.48 316.08C120.267 315.723 119.982 315.437 119.624 315.224C119.267 315.011 118.87 314.904 118.432 314.904C118 314.904 117.603 315.011 117.24 315.224C116.883 315.437 116.598 315.723 116.384 316.08C116.171 316.437 116.064 316.835 116.064 317.272V322H114.944V314H116.064V315.104C116.347 314.699 116.715 314.376 117.168 314.136C117.622 313.896 118.115 313.776 118.648 313.776C119.251 313.776 119.8 313.923 120.296 314.216C120.792 314.509 121.187 314.904 121.48 315.4C121.774 315.896 121.92 316.445 121.92 317.048ZM127.611 315.12H125.699L125.691 322H124.571L124.579 315.12H123.131V314H124.579L124.571 311.488H125.691L125.699 314H127.611V315.12Z" fill="#FEFEFE"/>
<defs>
<linearGradient id="paint0_linear_84_3" x1="6.5" y1="10" x2="6.49999" y2="291" gradientUnits="userSpaceOnUse">
<stop stop-color="white"/>
<stop offset="1" stop-color="white" stop-opacity="0.05"/>
</linearGradient>
</defs>
</svg>
